<?xml version="1.0" encoding="UTF-8"?>
<svg xmlns="http://www.w3.org/2000/svg" viewBox="0 0 64 64" fill="none">
  <defs>
    <linearGradient id="bg" x1="0" y1="0" x2="64" y2="64" gradientUnits="userSpaceOnUse">
      <stop offset="0%" stop-color="#1a0a2e"/>
      <stop offset="100%" stop-color="#0d0515"/>
    </linearGradient>
    <linearGradient id="feather" x1="8" y1="4" x2="56" y2="60" gradientUnits="userSpaceOnUse">
      <stop offset="0%" stop-color="#f472b6"/>
      <stop offset="100%" stop-color="#a855f7"/>
    </linearGradient>
  </defs>
  <rect width="64" height="64" rx="16" fill="url(#bg)"/>
  <path d="M48 8C48 8 36 10 26 20C18 28 14 38 12 46L16 42C18 34 22 26 30 20C34 17 39 15.5 43 14C40 20 37 26 33 31L37 29C42 24 46 16 48 8Z" fill="url(#feather)"/>
  <path d="M12 46C12 46 18 41 26 38C22 42 19 47 18 52" stroke="url(#feather)" stroke-width="2.5" stroke-linecap="round" fill="none"/>
  <path d="M26 38L16 42" stroke="url(#feather)" stroke-width="1.5" stroke-linecap="round" opacity="0.5"/>
  <path d="M33 31L26 38" stroke="url(#feather)" stroke-width="1.5" stroke-linecap="round" opacity="0.4"/>
</svg>
